<svg width="145" height="39" viewBox="0 0 145 39" fill="none" xmlns="http://www.w3.org/2000/svg">
<g clip-path="url(#clip0_1144_19)">
<path d="M37.5642 11.9277C36.5713 9.62668 35.1766 7.53698 33.3799 5.75251C31.5833 3.96804 29.5029 2.58273 27.1862 1.62006C24.7749 0.610428 22.2218 0.0938721 19.5741 0.0938721C16.95 0.0938721 14.3733 0.610428 11.962 1.62006C9.64524 2.58273 7.56491 3.99152 5.76827 5.77599C3.97162 7.56046 2.55321 9.62668 1.58397 11.9277C0.567445 14.3226 0.0473633 16.8585 0.0473633 19.4882C0.0473633 22.0945 0.567445 24.6538 1.58397 27.0487C2.57685 29.3497 3.97162 31.4394 5.76827 33.2239C7.56491 34.9849 9.64524 36.3937 11.962 37.3564C14.3733 38.366 16.9264 38.8826 19.5741 38.8826C20.6852 38.8826 21.7963 38.7886 22.8601 38.6008C23.0728 38.5773 23.2619 38.5304 23.4747 38.4834C25.4841 38.0842 27.399 37.3564 29.1956 36.3702C30.945 35.3841 32.5289 34.1396 33.9 32.6839C35.2711 31.2046 36.4058 29.5611 37.2569 27.7531C38.1316 25.8982 38.7226 23.9259 38.959 21.8832C39.0062 21.4605 39.0535 21.0379 39.0772 20.5918C39.1008 20.2161 39.1008 19.8404 39.1008 19.4647C39.1008 16.8585 38.6044 14.3226 37.5642 11.9277ZM23.0019 33.5761C22.4818 32.4256 22.2218 31.2046 22.2218 29.9133C22.2218 24.9355 26.2879 20.897 31.2996 20.897C32.2452 20.897 33.1671 21.0379 34.0418 21.3196C33.2853 27.307 28.8883 32.1673 23.0019 33.5761ZM31.2996 17.5394C27.9663 17.5394 24.8458 18.8308 22.5055 21.1553C20.1651 23.4798 18.8649 26.6026 18.8649 29.8898C18.8649 30.8055 18.9594 31.6742 19.1486 32.543C16.359 30.7351 14.5387 27.5888 14.5387 24.1137C14.5387 18.5725 19.0776 14.0644 24.6567 14.0644C27.659 14.0644 30.4249 15.3792 32.3161 17.5394C31.9615 17.5629 31.6305 17.5394 31.2996 17.5394ZM4.98814 19.4882C4.98814 11.5051 11.5365 5.00116 19.5741 5.00116C24.964 5.00116 29.6684 7.91266 32.1979 12.2564C29.9757 10.8711 27.3753 10.0728 24.6331 10.0728C22.7182 10.0728 20.8743 10.4485 19.1249 11.1764C17.4465 11.8807 15.9335 12.8904 14.6333 14.1818C13.3331 15.4732 12.3166 16.9759 11.6074 18.6429C10.8745 20.3804 10.4963 22.2119 10.4963 24.1137C10.4963 27.1426 11.4892 30.1011 13.3095 32.5195C8.39232 30.2185 4.98814 25.2408 4.98814 19.4882Z" fill="url(#paint0_linear_1144_19)"/>
<path d="M42.103 30.7822L44.9162 28.4342C45.6254 29.3968 46.3819 30.1012 47.2093 30.5004C48.0367 30.8996 48.9587 31.1109 49.9988 31.1109C51.0153 31.1109 51.8191 30.8996 52.4337 30.4534C53.0484 30.0073 53.3557 29.3734 53.3557 28.5516C53.3557 27.9176 53.072 27.4011 52.5283 26.9315C51.9846 26.4853 51.0863 26.1332 49.9043 25.9218C47.3275 25.4522 45.5072 24.7009 44.5143 23.6913C43.4978 22.6816 43.0013 21.4137 43.0013 19.911C43.0013 18.0326 43.6633 16.5534 45.0108 15.4029C46.3582 14.2758 48.0603 13.6888 50.1407 13.6888C51.5827 13.6888 52.9302 13.9471 54.1358 14.4402C55.3651 14.9568 56.3344 15.7316 57.0436 16.7647L54.254 19.0422C53.6867 18.3848 53.072 17.8917 52.4101 17.563C51.7482 17.2343 50.9681 17.0934 50.0697 17.0934C49.1241 17.0934 48.3913 17.3047 47.8476 17.7039C47.3038 18.1031 47.0438 18.6666 47.0438 19.3944C47.0438 20.0519 47.3038 20.545 47.8239 20.9206C48.344 21.2963 49.3369 21.625 50.8026 21.8833C53.0484 22.2825 54.7268 22.9634 55.8379 23.9965C56.949 25.0061 57.4927 26.3914 57.4927 28.1289C57.4927 30.1247 56.7599 31.6979 55.3178 32.8249C53.8758 33.9519 52.1028 34.5389 49.9752 34.5389C48.1785 34.5389 46.5946 34.2102 45.2708 33.5528C43.947 32.8953 42.8832 31.9796 42.103 30.7822Z" fill="black"/>
<path d="M76.9722 34.0928V4.57861H81.5347V34.0693H76.9722V34.0928Z" fill="black"/>
<path d="M85.2935 10.5425C84.4424 10.5425 83.7332 10.2608 83.1895 9.72071C82.6458 9.18068 82.3857 8.49976 82.3857 7.72493C82.3857 6.92661 82.6458 6.26918 83.1895 5.72914C83.7332 5.18911 84.4424 4.90735 85.2935 4.90735C86.1682 4.90735 86.8774 5.18911 87.4211 5.72914C87.9648 6.26918 88.2248 6.95009 88.2248 7.72493C88.2248 8.52324 87.9648 9.20416 87.4211 9.74419C86.8774 10.2842 86.1682 10.5425 85.2935 10.5425ZM87.5629 34.1163H83.0004V14.1819H87.5629V34.1163Z" fill="black"/>
<path d="M107.279 30.383C106.381 31.7917 105.246 32.8249 103.851 33.5293C102.456 34.2337 100.896 34.5624 99.1941 34.5624C95.9554 34.5624 93.4259 33.6467 91.6293 31.7917C89.809 29.9368 88.9106 27.5184 88.9106 24.4895C88.9106 21.1554 89.8799 18.5256 91.7947 16.6003C93.7096 14.675 96.2154 13.7123 99.3123 13.7123C101.038 13.7123 102.622 14.0645 104.017 14.7924C105.411 15.5202 106.475 16.6003 107.184 18.0326L103.615 19.817C102.976 18.9248 102.315 18.2908 101.605 17.9152C100.896 17.5395 100.069 17.3517 99.1232 17.3517C97.492 17.3517 96.1682 17.9386 95.128 19.1361C94.0878 20.3336 93.5441 22.0007 93.5441 24.1373C93.5441 26.2505 94.0642 27.8941 95.1043 29.0446C96.1445 30.1951 97.5393 30.7821 99.2886 30.7821C100.187 30.7821 100.991 30.5943 101.747 30.2186C102.504 29.8429 103.166 29.2324 103.78 28.3402L107.279 30.383Z" fill="black"/>
<path d="M126.427 34.1162H121.888V22.4232C121.888 20.7562 121.557 19.4883 120.895 18.643C120.233 17.7977 119.264 17.3751 117.94 17.3751C116.522 17.3751 115.364 17.8916 114.489 18.9013C113.614 19.9109 113.165 21.2023 113.165 22.752V34.0927H108.603V4.60205H113.165V16.8585H113.236C113.945 15.8489 114.867 15.0741 115.978 14.534C117.113 13.994 118.319 13.7122 119.619 13.7122C121.77 13.7122 123.449 14.3931 124.631 15.755C125.813 17.1168 126.404 19.1361 126.404 21.8128V34.1162H126.427Z" fill="black"/>
<path d="M144.559 34.0928H140.162V31.6274H140.091C139.382 32.5901 138.531 33.3179 137.515 33.811C136.498 34.3041 135.363 34.5624 134.11 34.5624C132.267 34.5624 130.73 34.0458 129.548 32.9892C128.366 31.9326 127.775 30.5708 127.775 28.8568C127.775 27.0254 128.366 25.5696 129.548 24.4426C130.73 23.339 132.432 22.6581 134.631 22.3998L140.186 21.7659V20.8032C140.186 19.5822 139.831 18.6431 139.146 18.0326C138.46 17.4221 137.538 17.1169 136.427 17.1169C135.316 17.1169 134.394 17.3751 133.614 17.8447C132.858 18.3378 132.219 19.0422 131.723 19.9579L128.319 18.2204C129.004 16.8821 130.068 15.7785 131.534 14.9332C132.999 14.088 134.725 13.6418 136.735 13.6418C139.264 13.6418 141.202 14.2993 142.55 15.6142C143.897 16.929 144.559 18.8309 144.559 21.3432V34.0928ZM140.162 26.0157V24.9356L135.316 25.4522C134.205 25.5696 133.401 25.8748 132.881 26.3679C132.361 26.861 132.125 27.5184 132.125 28.3637C132.125 29.209 132.408 29.8899 132.999 30.4064C133.59 30.923 134.323 31.2048 135.269 31.2048C136.735 31.2048 137.917 30.7117 138.815 29.7255C139.713 28.7394 140.162 27.4949 140.162 26.0157Z" fill="black"/>
<path d="M75.5776 34.0928H71.1569V31.6274H71.086C70.3768 32.5901 69.5258 33.318 68.5092 33.8111C67.4927 34.3041 66.358 34.5624 65.1051 34.5624C63.2611 34.5624 61.7245 34.0459 60.5425 32.9893C59.3605 31.9327 58.7695 30.5708 58.7695 28.8568C58.7695 27.0254 59.3605 25.5696 60.5425 24.4426C61.7245 23.3391 63.4266 22.6581 65.6252 22.3999L71.1806 21.7659V20.8032C71.1806 19.5823 70.826 18.6431 70.1404 18.0326C69.4549 17.4221 68.5329 17.1169 67.4218 17.1169C66.3107 17.1169 65.3888 17.3752 64.6086 17.8448C63.8521 18.3378 63.2139 19.0422 62.7174 19.958L59.3369 18.2674C60.0225 16.9291 61.0863 15.8255 62.5519 14.9802C64.0176 14.135 65.7434 13.6888 67.7528 13.6888C70.2823 13.6888 72.2208 14.3463 73.5682 15.6611C74.9157 16.976 75.5776 18.8779 75.5776 21.3902V34.0928ZM71.1806 25.9923V24.9122L66.3344 25.4288C65.2233 25.5462 64.4195 25.8514 63.8994 26.3445C63.3793 26.8375 63.1429 27.495 63.1429 28.3403C63.1429 29.1855 63.4266 29.8664 64.0176 30.383C64.6086 30.8996 65.3415 31.1813 66.2871 31.1813C67.7528 31.1813 68.9348 30.6882 69.8331 29.7021C70.7314 28.7159 71.1806 27.4715 71.1806 25.9923Z" fill="black"/>
</g>
<defs>
<linearGradient id="paint0_linear_1144_19" x1="19.5741" y1="0.0938721" x2="19.5741" y2="38.8826" gradientUnits="userSpaceOnUse">
<stop stop-color="#97E9F9"/>
<stop offset="1" stop-color="#F6FB78"/>
</linearGradient>
<clipPath id="clip0_1144_19">
<rect width="144.677" height="39" fill="white"/>
</clipPath>
</defs>
</svg>
