<svg width="1117" height="301" viewBox="0 0 1117 301" fill="none" xmlns="http://www.w3.org/2000/svg">
<path d="M289.99 92.058C282.325 74.2988 271.558 58.1706 257.688 44.3982C243.818 30.6257 227.758 19.934 209.873 12.5041C191.258 4.71185 171.549 0.725098 151.109 0.725098C130.851 0.725098 110.959 4.71185 92.3442 12.5041C74.4594 19.934 58.3995 30.807 44.5296 44.5794C30.6597 58.3518 19.7098 74.2988 12.2274 92.058C4.37996 110.542 0.36499 130.113 0.36499 150.41C0.36499 170.524 4.37996 190.277 12.2274 208.761C19.8923 226.52 30.6597 242.648 44.5296 256.421C58.3995 270.012 74.4594 280.885 92.3442 288.315C110.959 296.107 130.669 300.094 151.109 300.094C159.686 300.094 168.264 299.369 176.476 297.919C178.119 297.738 179.579 297.376 181.221 297.013C196.733 293.933 211.516 288.315 225.386 280.704C238.891 273.093 251.118 263.488 261.703 252.253C272.288 240.836 281.048 228.151 287.618 214.198C294.37 199.881 298.933 184.659 300.758 168.894C301.123 165.632 301.488 162.37 301.67 158.927C301.853 156.027 301.853 153.128 301.853 150.228C301.853 130.113 298.02 110.542 289.99 92.058ZM177.571 259.139C173.556 250.26 171.549 240.836 171.549 230.869C171.549 192.452 202.938 161.282 241.628 161.282C248.928 161.282 256.045 162.37 262.798 164.544C256.958 210.754 223.013 248.266 177.571 259.139ZM241.628 135.369C215.896 135.369 191.806 145.335 173.739 163.276C155.671 181.216 145.634 205.318 145.634 230.688C145.634 237.756 146.364 244.461 147.824 251.166C126.289 237.212 112.237 212.929 112.237 186.109C112.237 143.342 147.276 108.549 190.346 108.549C213.523 108.549 234.876 118.697 249.475 135.369C246.738 135.55 244.183 135.369 241.628 135.369ZM38.5072 150.41C38.5072 88.7961 89.0593 38.5992 151.109 38.5992C192.718 38.5992 229.036 61.07 248.563 94.595C231.408 83.9032 211.333 77.7419 190.163 77.7419C175.381 77.7419 161.146 80.6413 147.641 86.259C134.684 91.6955 123.004 99.4878 112.967 109.455C102.929 119.422 95.0817 131.019 89.6068 143.886C83.9493 157.296 81.0293 171.431 81.0293 186.109C81.0293 209.486 88.6943 232.319 102.747 250.984C64.787 233.225 38.5072 194.807 38.5072 150.41Z" fill="white"/>
<path d="M325.03 237.574L346.747 219.453C352.222 226.882 358.062 232.319 364.449 235.4C370.837 238.48 377.954 240.111 385.984 240.111C393.832 240.111 400.037 238.48 404.782 235.037C409.527 231.594 411.899 226.701 411.899 220.359C411.899 215.466 409.709 211.479 405.512 207.855C401.314 204.412 394.379 201.693 385.254 200.063C365.362 196.438 351.31 190.639 343.645 182.847C335.797 175.055 331.965 165.269 331.965 153.671C331.965 139.174 337.075 127.757 347.477 118.878C357.88 110.179 371.019 105.649 387.079 105.649C398.212 105.649 408.614 107.642 417.922 111.448C427.411 115.435 434.894 121.415 440.369 129.388L418.834 146.966C414.454 141.892 409.709 138.087 404.599 135.55C399.489 133.013 393.467 131.925 386.532 131.925C379.232 131.925 373.574 133.556 369.377 136.637C365.179 139.718 363.172 144.067 363.172 149.684C363.172 154.758 365.179 158.564 369.194 161.463C373.209 164.363 380.874 166.9 392.189 168.893C409.527 171.974 422.484 177.229 431.061 185.203C439.639 192.995 443.836 203.687 443.836 217.097C443.836 232.5 438.179 244.642 427.046 253.34C415.914 262.038 402.227 266.569 385.802 266.569C371.932 266.569 359.704 264.032 349.485 258.958C339.265 253.884 331.052 246.816 325.03 237.574Z" fill="white"/>
<path d="M594.215 263.126V35.3369H629.438V262.944H594.215V263.126Z" fill="white"/>
<path d="M658.455 81.3659C651.885 81.3659 646.41 79.1913 642.212 75.0233C638.015 70.8554 636.007 65.6001 636.007 59.62C636.007 53.4586 638.015 48.3846 642.212 44.2166C646.41 40.0486 651.885 37.874 658.455 37.874C665.207 37.874 670.682 40.0486 674.879 44.2166C679.077 48.3846 681.084 53.6398 681.084 59.62C681.084 65.7813 679.077 71.0366 674.879 75.2045C670.682 79.3725 665.207 81.3659 658.455 81.3659ZM675.975 263.307H640.752V109.454H675.975V263.307Z" fill="white"/>
<path d="M828.178 234.493C821.243 245.366 812.483 253.34 801.716 258.776C790.949 264.213 778.904 266.75 765.764 266.75C740.762 266.75 721.234 259.683 707.364 245.366C693.312 231.05 686.377 212.385 686.377 189.008C686.377 163.276 693.859 142.979 708.642 128.12C723.424 113.26 742.769 105.83 766.676 105.83C779.999 105.83 792.226 108.548 802.993 114.166C813.761 119.784 821.973 128.12 827.448 139.174L799.891 152.946C794.964 146.06 789.854 141.167 784.379 138.268C778.904 135.368 772.516 133.919 765.216 133.919C752.624 133.919 742.404 138.449 734.374 147.691C726.344 156.933 722.147 169.799 722.147 186.29C722.147 202.599 726.162 215.285 734.192 224.164C742.221 233.044 752.989 237.574 766.494 237.574C773.429 237.574 779.634 236.124 785.474 233.225C791.314 230.326 796.424 225.614 801.169 218.728L828.178 234.493Z" fill="white"/>
<path d="M976.002 263.307H940.963V173.061C940.963 160.195 938.408 150.409 933.298 143.885C928.188 137.362 920.705 134.1 910.485 134.1C899.535 134.1 890.593 138.086 883.841 145.879C877.088 153.671 873.621 163.638 873.621 175.598V263.126H838.398V35.5181H873.621V130.113H874.168C879.643 122.321 886.761 116.34 895.338 112.172C904.098 108.005 913.405 105.83 923.443 105.83C940.05 105.83 953.008 111.085 962.133 121.596C971.257 132.106 975.82 147.691 975.82 168.35V263.307H976.002Z" fill="white"/>
<path d="M1115.98 263.125H1082.03V244.098H1081.49C1076.01 251.527 1069.44 257.145 1061.59 260.951C1053.75 264.756 1044.99 266.75 1035.31 266.75C1021.08 266.75 1009.22 262.763 1000.09 254.608C990.967 246.453 986.405 235.943 986.405 222.714C986.405 208.579 990.967 197.344 1000.09 188.646C1009.22 180.128 1022.36 174.873 1039.33 172.88L1082.22 167.987V160.557C1082.22 151.134 1079.48 143.885 1074.19 139.174C1068.89 134.462 1061.78 132.106 1053.2 132.106C1044.62 132.106 1037.5 134.099 1031.48 137.724C1025.64 141.529 1020.71 146.966 1016.88 154.033L990.602 140.623C995.895 130.294 1004.11 121.777 1015.42 115.253C1026.74 108.729 1040.06 105.286 1055.57 105.286C1075.1 105.286 1090.06 110.36 1100.47 120.508C1110.87 130.656 1115.98 145.335 1115.98 164.725V263.125ZM1082.03 200.787V192.451L1044.62 196.438C1036.04 197.344 1029.84 199.7 1025.82 203.505C1021.81 207.311 1019.98 212.385 1019.98 218.909C1019.98 225.432 1022.17 230.688 1026.74 234.674C1031.3 238.661 1036.96 240.836 1044.26 240.836C1055.57 240.836 1064.7 237.03 1071.63 229.419C1078.57 221.808 1082.03 212.204 1082.03 200.787Z" fill="white"/>
<path d="M583.448 263.126H549.321V244.098H548.773C543.298 251.528 536.728 257.146 528.881 260.951C521.033 264.757 512.273 266.75 502.601 266.75C488.366 266.75 476.504 262.763 467.379 254.609C458.254 246.454 453.691 235.943 453.691 222.715C453.691 208.58 458.254 197.344 467.379 188.646C476.504 180.129 489.644 174.873 506.616 172.88L549.503 167.987V160.557C549.503 151.134 546.766 143.886 541.473 139.174C536.181 134.462 529.063 132.106 520.486 132.106C511.908 132.106 504.791 134.1 498.769 137.724C492.929 141.53 488.001 146.966 484.169 154.034L458.071 140.986C463.364 130.657 471.576 122.14 482.891 115.616C494.206 109.092 507.528 105.649 523.041 105.649C542.568 105.649 557.533 110.723 567.936 120.871C578.338 131.019 583.448 145.698 583.448 165.088V263.126ZM549.503 200.606V192.27L512.091 196.257C503.514 197.163 497.309 199.519 493.294 203.324C489.279 207.13 487.454 212.204 487.454 218.728C487.454 225.252 489.644 230.507 494.206 234.494C498.769 238.48 504.426 240.655 511.726 240.655C523.041 240.655 532.166 236.849 539.101 229.238C546.036 221.627 549.503 212.023 549.503 200.606Z" fill="white"/>
</svg>
